<svg width="100" height="100" viewBox="0 0 100 100" fill="none" xmlns="http://www.w3.org/2000/svg">
<path d="M0 14C0 6.26801 6.26801 0 14 0H86C93.732 0 100 6.26801 100 14V86C100 93.732 93.732 100 86 100H14C6.26801 100 0 93.732 0 86V14Z" fill="#0D423E"/>
<path d="M30.0625 69.75L42.625 52.5L23.75 46.875L26.6875 37.5L45.5625 44.4375L45 22.9375H54.5L53.875 44.8125L72.5 37.875L75.375 47.4375L56.1875 53.125L68.5 70.0625L60.75 75.875L49.1875 57.875L37.875 75.4375L30.0625 69.75Z" fill="#8EDB90"/>
</svg>
